ffmpeg started on 2016-12-06 at 16:38:23
Report written to "Output/x264/results/ffmpeg/sintelmedium2500k.log"
Command line:
Tools/ffmpeg/ffmpeg -benchmark -y -i Input/y4m/sintel.y4m -c:v libx264 -preset medium -b:v 2500k -an Output/x264/encoded/sintelmedium2500k.mkv
ffmpeg version N-82227-gdb23fde Copyright (c) 2000-2016 the FFmpeg developers
  built with gcc 5.4.0 (Ubuntu 5.4.0-6ubuntu1~16.04.2) 20160609
  configuration: --prefix=/home/jaroslav/ffmpeg_build --pkg-config-flags=--static --extra-cflags=-I/home/jaroslav/ffmpeg_build/include --extra-ldflags=-L/home/jaroslav/ffmpeg_build/lib --bindir=/home/jaroslav/bin --enable-gpl --enable-libass --enable-libfdk-aac --enable-libfreetype --enable-libmp3lame --enable-libopus --enable-libtheora --enable-libvorbis --enable-libvpx --enable-libx264 --enable-libx265 --enable-nvenc --enable-libmfx --enable-libxvid --enable-libgsm --enable-libopencore-amrnb --enable-version3 --enable-nonfree
  libavutil      55. 35.100 / 55. 35.100
  libavcodec     57. 66.101 / 57. 66.101
  libavformat    57. 57.100 / 57. 57.100
  libavdevice    57.  2.100 / 57.  2.100
  libavfilter     6. 66.100 /  6. 66.100
  libswscale      4.  3.100 /  4.  3.100
  libswresample   2.  4.100 /  2.  4.100
  libpostproc    54.  2.100 / 54.  2.100
Input #0, yuv4mpegpipe, from 'Input/y4m/sintel.y4m':
  Duration: 00:00:20.83, start: 0.000000, bitrate: 2057307 kb/s
    Stream #0:0: Video: rawvideo (I420 / 0x30323449), yuv420p(progressive), 4096x1744, SAR 1:1 DAR 256:109, 24 fps, 24 tbr, 24 tbn, 24 tbc
[libx264 @ 0x2ff41c0] using SAR=1/1
[libx264 @ 0x2ff41c0] using cpu capabilities: MMX2 SSE2Fast SSSE3 SSE4.2 AVX FMA3 AVX2 LZCNT BMI2
[libx264 @ 0x2ff41c0] profile High, level 5.1
[libx264 @ 0x2ff41c0] 264 - core 148 - H.264/MPEG-4 AVC codec - Copyleft 2003-2016 - http://www.videolan.org/x264.html - options: cabac=1 ref=3 deblock=1:0:0 analyse=0x3:0x113 me=hex subme=7 psy=1 psy_rd=1.00:0.00 mixed_ref=1 me_range=16 chroma_me=1 trellis=1 8x8dct=1 cqm=0 deadzone=21,11 fast_pskip=1 chroma_qp_offset=-2 threads=6 lookahead_threads=1 sliced_threads=0 nr=0 decimate=1 interlaced=0 bluray_compat=0 constrained_intra=0 bframes=3 b_pyramid=2 b_adapt=1 b_bias=0 direct=1 weightb=1 open_gop=0 weightp=2 keyint=250 keyint_min=24 scenecut=40 intra_refresh=0 rc_lookahead=40 rc=abr mbtree=1 bitrate=2500 ratetol=1.0 qcomp=0.60 qpmin=0 qpmax=69 qpstep=4 ip_ratio=1.40 aq=1:1.00
Output #0, matroska, to 'Output/x264/encoded/sintelmedium2500k.mkv':
  Metadata:
    encoder         : Lavf57.57.100
    Stream #0:0: Video: h264 (libx264) (H264 / 0x34363248), yuv420p, 4096x1744 [SAR 1:1 DAR 256:109], q=-1--1, 2500 kb/s, 24 fps, 1k tbn, 24 tbc
    Metadata:
      encoder         : Lavc57.66.101 libx264
    Side data:
      cpb: bitrate max/min/avg: 0/0/2500000 buffer size: 0 vbv_delay: -1
Stream mapping:
  Stream #0:0 -> #0:0 (rawvideo (native) -> h264 (libx264))
Press [q] to stop, [?] for help
frame=    7 fps=0.0 q=0.0 size=       0kB time=00:00:00.00 bitrate=N/A speed=   0x    frame=   12 fps= 11 q=0.0 size=       0kB time=00:00:00.00 bitrate=N/A speed=   0x    frame=   18 fps= 11 q=0.0 size=       0kB time=00:00:00.00 bitrate=N/A speed=   0x    frame=   27 fps= 13 q=0.0 size=       0kB time=00:00:00.00 bitrate=N/A speed=   0x    frame=   36 fps= 13 q=0.0 size=       0kB time=00:00:00.00 bitrate=N/A speed=   0x    frame=   39 fps= 12 q=0.0 size=       0kB time=00:00:00.00 bitrate=N/A speed=   0x    frame=   40 fps=6.0 q=0.0 size=       0kB time=00:00:00.00 bitrate=N/A speed=   0x    frame=   41 fps=4.0 q=0.0 size=       0kB time=00:00:00.00 bitrate=N/A speed=   0x    frame=   42 fps=3.4 q=0.0 size=       0kB time=00:00:00.00 bitrate=N/A speed=   0x    frame=   47 fps=3.1 q=0.0 size=       0kB time=00:00:00.00 bitrate=N/A speed=   0x    frame=   50 fps=3.2 q=0.0 size=       0kB time=00:00:00.00 bitrate=N/A speed=   0x    frame=   56 fps=3.5 q=43.0 size=       1kB time=00:00:00.12 bitrate=  46.6kbits/s speed=0.00787x    frame=   58 fps=3.5 q=54.0 size=       1kB time=00:00:00.20 bitrate=  28.1kbits/s speed=0.0126x    frame=   61 fps=3.6 q=54.0 size=       1kB time=00:00:00.33 bitrate=  17.6kbits/s speed=0.0195x    frame=   67 fps=3.8 q=54.0 size=       1kB time=00:00:00.58 bitrate=  10.1kbits/s speed=0.0331x    frame=   71 fps=3.8 q=54.0 size=       1kB time=00:00:00.75 bitrate=   7.8kbits/s speed=0.0406x    frame=   76 fps=4.0 q=54.0 size=       1kB time=00:00:00.95 bitrate=   6.1kbits/s speed=0.0501x    frame=   78 fps=4.0 q=54.0 size=       1kB time=00:00:01.04 bitrate=   5.6kbits/s speed=0.0529x    frame=   80 fps=3.9 q=54.0 size=       1kB time=00:00:01.12 bitrate=   5.2kbits/s speed=0.0546x    frame=   86 fps=4.1 q=54.0 size=       1kB time=00:00:01.37 bitrate=   4.3kbits/s speed=0.0651x    frame=   91 fps=4.2 q=53.0 size=       1kB time=00:00:01.58 bitrate=   3.7kbits/s speed=0.0729x    frame=   95 fps=4.2 q=53.0 size=       1kB time=00:00:01.75 bitrate=   3.4kbits/s speed=0.0777x    frame=  102 fps=4.4 q=53.0 size=       1kB time=00:00:02.04 bitrate=   2.9kbits/s speed=0.0881x    frame=  107 fps=4.5 q=53.0 size=       1kB time=00:00:02.25 bitrate=   2.6kbits/s speed=0.0945x    frame=  112 fps=4.6 q=53.0 size=       1kB time=00:00:02.45 bitrate=   2.4kbits/s speed= 0.1x    frame=  117 fps=4.7 q=53.0 size=       1kB time=00:00:02.66 bitrate=   2.2kbits/s speed=0.107x    frame=  123 fps=4.8 q=53.0 size=       1kB time=00:00:02.91 bitrate=   2.0kbits/s speed=0.114x    frame=  129 fps=4.9 q=53.0 size=       1kB time=00:00:03.16 bitrate=   1.9kbits/s speed=0.12x    frame=  135 fps=5.0 q=53.0 size=       1kB time=00:00:03.41 bitrate=   1.7kbits/s speed=0.127x    frame=  139 fps=5.1 q=53.0 size=       1kB time=00:00:03.58 bitrate=   1.6kbits/s speed=0.131x    frame=  143 fps=5.1 q=53.0 size=       1kB time=00:00:03.75 bitrate=   1.6kbits/s speed=0.134x    frame=  145 fps=5.1 q=53.0 size=       1kB time=00:00:03.83 bitrate=   1.5kbits/s speed=0.134x    frame=  152 fps=5.2 q=53.0 size=    1475kB time=00:00:04.12 bitrate=2928.7kbits/s speed=0.142x    frame=  156 fps=5.2 q=53.0 size=    1475kB time=00:00:04.29 bitrate=2814.8kbits/s speed=0.144x    frame=  159 fps=5.2 q=53.0 size=    1475kB time=00:00:04.41 bitrate=2735.1kbits/s speed=0.144x    frame=  166 fps=5.3 q=53.0 size=    1475kB time=00:00:04.70 bitrate=2566.1kbits/s speed=0.15x    frame=  169 fps=5.3 q=53.0 size=    1475kB time=00:00:04.83 bitrate=2499.8kbits/s speed=0.15x    frame=  175 fps=5.3 q=53.0 size=    1475kB time=00:00:05.08 bitrate=2376.8kbits/s speed=0.154x    frame=  181 fps=5.4 q=53.0 size=    1475kB time=00:00:05.33 bitrate=2265.4kbits/s speed=0.159x    frame=  187 fps=5.5 q=53.0 size=    1475kB time=00:00:05.58 bitrate=2164.0kbits/s speed=0.164x    frame=  192 fps=5.5 q=53.0 size=    1475kB time=00:00:05.79 bitrate=2085.9kbits/s speed=0.167x    frame=  199 fps=5.7 q=53.0 size=    1475kB time=00:00:06.08 bitrate=1986.2kbits/s speed=0.173x    frame=  205 fps=5.7 q=53.0 size=    1475kB time=00:00:06.33 bitrate=1907.8kbits/s speed=0.177x    frame=  210 fps=5.8 q=53.0 size=    2212kB time=00:00:06.54 bitrate=2769.3kbits/s speed=0.18x    frame=  214 fps=5.8 q=53.0 size=    2212kB time=00:00:06.70 bitrate=2700.8kbits/s speed=0.181x    frame=  221 fps=5.9 q=53.0 size=    2212kB time=00:00:07.00 bitrate=2588.2kbits/s speed=0.185x    frame=  226 fps=5.9 q=53.0 size=    2212kB time=00:00:07.20 bitrate=2513.5kbits/s speed=0.188x    frame=  232 fps=6.0 q=53.0 size=    2212kB time=00:00:07.45 bitrate=2429.2kbits/s speed=0.192x    frame=  233 fps=5.9 q=53.0 size=    2212kB time=00:00:07.50 bitrate=2415.6kbits/s speed=0.19x    frame=  235 fps=5.8 q=53.0 size=    2505kB time=00:00:07.58 bitrate=2706.1kbits/s speed=0.189x    frame=  242 fps=5.9 q=52.0 size=    2505kB time=00:00:07.87 bitrate=2605.8kbits/s speed=0.193x    frame=  249 fps=6.0 q=52.0 size=    2505kB time=00:00:08.16 bitrate=2512.6kbits/s speed=0.197x    frame=  254 fps=6.0 q=52.0 size=    2505kB time=00:00:08.37 bitrate=2450.2kbits/s speed= 0.2x    frame=  261 fps=6.1 q=52.0 size=    2505kB time=00:00:08.66 bitrate=2367.7kbits/s speed=0.204x    frame=  269 fps=6.2 q=52.0 size=    2505kB time=00:00:09.00 bitrate=2280.1kbits/s speed=0.209x    frame=  277 fps=6.3 q=52.0 size=    2505kB time=00:00:09.33 bitrate=2198.7kbits/s speed=0.213x    frame=  280 fps=6.3 q=51.0 size=    2505kB time=00:00:09.45 bitrate=2169.7kbits/s speed=0.212x    frame=  290 fps=6.4 q=51.0 size=    2505kB time=00:00:09.87 bitrate=2078.1kbits/s speed=0.217x    frame=  296 fps=6.4 q=51.0 size=    2505kB time=00:00:10.12 bitrate=2026.8kbits/s speed=0.219x    frame=  300 fps=6.4 q=51.0 size=    2505kB time=00:00:10.29 bitrate=1993.9kbits/s speed=0.218x    frame=  303 fps=6.3 q=51.0 size=    2505kB time=00:00:10.41 bitrate=1970.0kbits/s speed=0.218x    frame=  309 fps=6.3 q=51.0 size=    2505kB time=00:00:10.66 bitrate=1923.8kbits/s speed=0.219x    frame=  312 fps=6.3 q=50.0 size=    2505kB time=00:00:10.79 bitrate=1901.5kbits/s speed=0.219x    frame=  314 fps=6.3 q=50.0 size=    2505kB time=00:00:10.87 bitrate=1887.0kbits/s speed=0.218x    frame=  320 fps=6.3 q=50.0 size=    3238kB time=00:00:11.12 bitrate=2383.8kbits/s speed=0.22x    frame=  323 fps=6.3 q=50.0 size=    3238kB time=00:00:11.25 bitrate=2357.3kbits/s speed=0.22x    frame=  326 fps=6.3 q=50.0 size=    3238kB time=00:00:11.37 bitrate=2331.4kbits/s speed=0.219x    frame=  333 fps=6.3 q=50.0 size=    3238kB time=00:00:11.66 bitrate=2273.1kbits/s speed=0.222x    frame=  342 fps=6.4 q=50.0 size=    3238kB time=00:00:12.04 bitrate=2202.3kbits/s speed=0.226x    frame=  347 fps=6.4 q=49.0 size=    3238kB time=00:00:12.25 bitrate=2164.9kbits/s speed=0.226x    frame=  354 fps=6.5 q=49.0 size=    3238kB time=00:00:12.54 bitrate=2114.5kbits/s speed=0.23x    frame=  358 fps=6.5 q=49.0 size=    3238kB time=00:00:12.70 bitrate=2086.9kbits/s speed=0.23x    frame=  370 fps=6.6 q=48.0 size=    3238kB time=00:00:13.20 bitrate=2007.9kbits/s speed=0.237x    frame=  374 fps=6.6 q=48.0 size=    3238kB time=00:00:13.37 bitrate=1982.8kbits/s speed=0.237x    frame=  380 fps=6.7 q=47.0 size=    3238kB time=00:00:13.62 bitrate=1946.5kbits/s speed=0.24x    frame=  387 fps=6.7 q=47.0 size=    3238kB time=00:00:13.91 bitrate=1905.6kbits/s speed=0.243x    frame=  393 fps=6.8 q=47.0 size=    3238kB time=00:00:14.16 bitrate=1872.0kbits/s speed=0.244x    frame=  399 fps=6.8 q=47.0 size=    3238kB time=00:00:14.41 bitrate=1839.5kbits/s speed=0.246x    frame=  401 fps=6.8 q=47.0 size=    3238kB time=00:00:14.50 bitrate=1829.0kbits/s speed=0.245x    frame=  408 fps=6.8 q=44.0 size=    3238kB time=00:00:14.79 bitrate=1792.9kbits/s speed=0.248x    frame=  410 fps=6.8 q=46.0 size=    3238kB time=00:00:14.87 bitrate=1782.9kbits/s speed=0.245x    frame=  417 fps=6.8 q=46.0 size=    3848kB time=00:00:15.16 bitrate=2078.4kbits/s speed=0.248x    frame=  420 fps=6.8 q=46.0 size=    3848kB time=00:00:15.29 bitrate=2061.4kbits/s speed=0.248x    frame=  422 fps=6.8 q=46.0 size=    3848kB time=00:00:15.37 bitrate=2050.2kbits/s speed=0.247x    frame=  427 fps=6.8 q=46.0 size=    3848kB time=00:00:15.58 bitrate=2022.9kbits/s speed=0.248x    frame=  429 fps=6.8 q=46.0 size=    3848kB time=00:00:15.66 bitrate=2012.0kbits/s speed=0.247x    frame=  431 fps=6.7 q=46.0 size=    3848kB time=00:00:15.75 bitrate=2001.4kbits/s speed=0.245x    frame=  434 fps=6.7 q=46.0 size=    3848kB time=00:00:15.87 bitrate=1985.7kbits/s speed=0.244x    frame=  442 fps=6.7 q=45.0 size=    3848kB time=00:00:16.20 bitrate=1944.9kbits/s speed=0.247x    frame=  449 fps=6.8 q=45.0 size=    3848kB time=00:00:16.50 bitrate=1910.5kbits/s speed=0.25x    frame=  457 fps=6.9 q=46.0 size=    3848kB time=00:00:16.83 bitrate=1872.7kbits/s speed=0.253x    frame=  461 fps=6.9 q=45.0 size=    3848kB time=00:00:17.00 bitrate=1854.3kbits/s speed=0.254x    frame=  469 fps=6.9 q=45.0 size=    4434kB time=00:00:17.33 bitrate=2095.4kbits/s speed=0.256x    frame=  477 fps=7.0 q=45.0 size=    4434kB time=00:00:17.66 bitrate=2055.8kbits/s speed=0.258x    frame=  486 fps=7.0 q=45.0 size=    4434kB time=00:00:18.04 bitrate=2013.1kbits/s speed=0.262x    frame=  496 fps=7.1 q=45.0 size=    4434kB time=00:00:18.45 bitrate=1967.7kbits/s speed=0.265x    frame=  500 fps=6.9 q=-1.0 Lsize=    5187kB time=00:00:20.70 bitrate=2051.9kbits/s speed=0.287x    
video:5183kB audio:0kB subtitle:0kB other streams:0kB global headers:0kB muxing overhead: 0.086058%
bench: utime=138.652s
bench: maxrss=1565352kB
[libx264 @ 0x2ff41c0] frame I:8     Avg QP:40.56  size: 35969
[libx264 @ 0x2ff41c0] frame P:269   Avg QP:46.13  size: 13061
[libx264 @ 0x2ff41c0] frame B:223   Avg QP:44.95  size:  6749
[libx264 @ 0x2ff41c0] consecutive B-frames: 37.0%  8.4%  6.6% 48.0%
[libx264 @ 0x2ff41c0] mb I  I16..4: 20.6% 78.8%  0.5%
[libx264 @ 0x2ff41c0] mb P  I16..4:  7.8% 29.8%  0.0%  P16..4:  6.5%  0.2%  0.1%  0.0%  0.0%    skip:55.6%
[libx264 @ 0x2ff41c0] mb B  I16..4:  0.8%  1.2%  0.0%  B16..8: 15.5%  0.3%  0.0%  direct: 0.2%  skip:82.1%  L0:41.5% L1:58.0% BI: 0.5%
[libx264 @ 0x2ff41c0] final ratefactor: 42.65
[libx264 @ 0x2ff41c0] 8x8 transform intra:78.4% inter:97.3%
[libx264 @ 0x2ff41c0] coded y,uvDC,uvAC intra: 4.5% 15.6% 0.1% inter: 0.7% 0.8% 0.0%
[libx264 @ 0x2ff41c0] i16 v,h,dc,p: 38% 39%  6% 17%
[libx264 @ 0x2ff41c0] i8 v,h,dc,ddl,ddr,vr,hd,vl,hu: 19%  7% 72%  0%  0%  0%  0%  0%  0%
[libx264 @ 0x2ff41c0] i4 v,h,dc,ddl,ddr,vr,hd,vl,hu: 23% 24% 15%  7% 10%  6%  8%  3%  4%
[libx264 @ 0x2ff41c0] i8c dc,h,v,p: 97%  2%  2%  0%
[libx264 @ 0x2ff41c0] Weighted P-Frames: Y:1.1% UV:0.7%
[libx264 @ 0x2ff41c0] ref P L0: 64.0%  4.4% 22.8%  8.7%  0.1%
[libx264 @ 0x2ff41c0] ref B L0: 85.6% 11.9%  2.5%
[libx264 @ 0x2ff41c0] ref B L1: 96.6%  3.4%
[libx264 @ 0x2ff41c0] kb/s:2037.59
